<svg width="20" height="22" viewBox="0 0 20 22" fill="none" xmlns="http://www.w3.org/2000/svg">
<path d="M8.21183 2.09126L8.20588 2.09559L8.2 2.1L2.20387 6.5971C1.82496 6.87612 1.52809 7.23276 1.31815 7.65363L2.213 8.1L1.31899 7.65195C1.10735 8.07423 1 8.52764 1 9V18C1 18.8176 1.30303 19.5422 1.88089 20.1201C2.45845 20.6977 3.18293 21 4 21H8H9V20V14H11V20V21H12H16C16.817 21 17.5415 20.6977 18.1195 20.1207L18.1207 20.1195C18.6977 19.5415 19 18.817 19 18V9C19 8.52843 18.8933 8.07562 18.6828 7.65363L18.682 7.65195C18.4715 7.23189 18.1746 6.87581 17.7961 6.59707L11.8 2.1L11.7941 2.09559L11.7882 2.09126C11.5281 1.90215 11.2456 1.75276 10.9412 1.65132C10.6364 1.54972 10.3211 1.5 10 1.5C9.67887 1.5 9.36356 1.54972 9.05877 1.65132C8.75443 1.75276 8.47186 1.90215 8.21183 2.09126Z" stroke="black" stroke-width="2"/>
</svg>
